# xmcd
#
# Track frame offsets:
#	150
#	11296
#	23018
#	35975
#	45606
#	56468
#	68108
#	77457
#	88549
#	101098
#	113248
#	124627
#	133266
#	144603
#	156394
#	168960
#	181386
#	194874
#	204942
#	217733
#	229785
#	242911
#	255463
#	267676
#
# Disc length: 3742 seconds
#
# Revision: 0
# Processed by: cddbd v1.5.2PL0 Copyright (c) Steve Scherf et al.
# Submitted via: EasyCDDAExtractor 15.3.0.1
#
DISCID=550e9c18
DTITLE=Slim Whitman - Straight From The Heart and Tomorrow Never comes
DYEAR=2012
DGENRE=Country
TTITLE0=Irresistible
TTITLE1=Walking in the Sunshine
TTITLE2=Stranger On The Shore
TTITLE3=The Angel Song (When The Angels Turns The Lights On In Heaven)
TTITLE4=I Walk Alone
TTITLE5=Let The Rest Of The World Go By
TTITLE6=Flower Of Love
TTITLE7=Little Arrows
TTITLE8=When There Is Love
TTITLE9=My Special Angel
TTITLE10=Each Time
TTITLE11=When You Were Sixteen
TTITLE12=Love Song of The Year
TTITLE13=Tomorrow Never Comes
TTITLE14=I Pretend
TTITLE15=My Heart Has A Mind Of Its Own
TTITLE16=Moonlight On The Colorado
TTITLE17=Do What You Do 
TTITLE18=You're Coming Home
TTITLE19=Shutters And Boards
TTITLE20=A World Worth Living in
TTITLE21=Let Me Live Again
TTITLE22=Come Take My Hand
TTITLE23=Blue Canadian Rockies
EXTD=
EXTT0=
EXTT1=
EXTT2=
EXTT3=
EXTT4=
EXTT5=
EXTT6=
EXTT7=
EXTT8=
EXTT9=
EXTT10=
EXTT11=
EXTT12=
EXTT13=
EXTT14=
EXTT15=
EXTT16=
EXTT17=
EXTT18=
EXTT19=
EXTT20=
EXTT21=
EXTT22=
EXTT23=
PLAYORDER=
